# xmcd
#
# Track frame offsets:
#	150
#	33187
#	91970
#	169103
#	229434
#	258849
#	306200
#	315018
#
# Disc length: 4374 seconds
#
# Revision: 0
# Processed by: cddbd v1.5.2PL0 Copyright (c) Steve Scherf et al.
# Submitted via: audiograbber 1.83.01
#
DISCID=56111408
DTITLE=Grateful Dead - 93-09-09 Richfield Coliseum, Richfield OH
DYEAR=1900
DGENRE=
TTITLE0=Saint Of Circumstance
TTITLE1=Terrapin Station
TTITLE2=Drums
TTITLE3=Space
TTITLE4=The Last Time
TTITLE5=Morning Dew
TTITLE6=Crowd and Tuning
TTITLE7=I Fought The Law
EXTD=
EXTT0=
EXTT1=
EXTT2=
EXTT3=
EXTT4=
EXTT5=
EXTT6=
EXTT7=
PLAYORDER=
